<svg height="512pt" viewBox="0 -26 512 511" width="512pt" xmlns="http://www.w3.org/2000/svg"><path d="m512 237.765625v-63.121094h-16.03125v-48.09375h-71.640625v15.027344h24.546875v33.066406h-32.5625v15.027344h16.53125v33.066406h-17.03125v-24.550781h-15.03125v24.550781h-56.609375v7.511719h-7.515625v40.582031h-17.03125v-48.597656h-15.03125v63.625h16.03125v48.09375h175.34375v-63.121094h-16.03125v-33.066406zm-15.03125-15.027344h-17.03125v-33.066406h17.03125zm-33.0625-81.160156h17.03125v33.066406h-17.03125zm-16.03125 48.09375h17.03125v33.066406h-17.03125zm-63.125 96.1875v33.066406h-17.03125v-33.066406zm-1-15.027344v-33.066406h17.03125v33.066406zm16.03125 15.027344h17.03125v33.066406h-17.03125zm32.0625 0h17.03125v33.066406h-17.03125zm-16.03125-15.027344v-33.066406h17.03125v33.066406zm-64.125-33.066406h17.03125v33.066406h-17.03125zm-16.03125 48.09375h17.03125v33.066406h-17.03125zm145.28125 0v33.066406h-17.03125v-33.066406zm-16.03125-15.027344h-17.03125v-33.066406h17.03125zm0 0"/><path d="m95.1875 45.390625h134.65625l-19.234375 19.234375 10.625 10.628906 37.375-37.378906-37.375-37.375-10.625 10.625 19.234375 19.234375h-149.6875v39.578125h15.03125zm0 0"/><path d="m416.8125 415.113281h-134.65625l19.238281-19.234375-10.628906-10.628906-37.375 37.378906 37.375 37.375 10.628906-10.628906-19.238281-19.234375h149.6875v-39.574219h-15.03125zm0 0"/><path d="m175.34375 126.550781h-175.34375v63.121094h32.0625v33.066406h-32.0625v63.121094h16.03125v48.09375h71.640625v-15.027344h-24.546875v-33.066406h32.5625v-15.027344h-16.53125v-33.066406h17.03125v24.546875h15.03125v-24.546875h56.609375v-7.515625h7.515625v-40.578125h17.03125v48.59375h15.03125v-63.621094h-32.0625zm-15.03125 48.09375h-17.03125v-33.066406h17.03125zm-64.125 0h-17.03125v-33.066406h17.03125zm15.03125-33.066406h17.03125v33.066406h-17.03125zm-47.09375 33.066406h-17.03125v-33.066406h17.03125zm32.0625 15.027344v33.066406h-17.03125v-33.066406zm15.03125 0h17.03125v33.066406h-17.03125zm-96.1875-48.09375h17.03125v33.066406h-17.03125zm32.0625 48.09375h17.03125v33.066406h-17.03125zm-32.0625 48.09375h17.03125v33.066406h-17.03125zm33.0625 81.160156h-17.03125v-33.066406h17.03125zm16.03125-48.09375h-17.03125v-33.066406h17.03125zm96.1875-48.09375h-17.03125v-33.066406h17.03125zm0 0"/><path d="m80.15625 85.96875h15.03125v16.03125h-15.03125zm0 0"/><path d="m416.8125 358.503906h15.03125v16.03125h-15.03125zm0 0"/><path d="m431.34375 150.09375c0 48.144531-39.027344 87.171875-87.171875 87.171875-48.140625 0-87.167969-39.027344-87.167969-87.171875 0-48.140625 39.027344-87.167969 87.167969-87.167969 48.144531 0 87.171875 39.027344 87.171875 87.167969zm0 0" fill="#00e9cc"/><path d="m253.664062 310.410156c0 47.402344-38.429687 85.832032-85.835937 85.832032s-85.835937-38.429688-85.835937-85.832032c0-47.40625 38.429687-85.835937 85.835937-85.835937s85.835937 38.429687 85.835937 85.835937zm0 0" fill="#00e9cc"/><path d="m336.65625 190.171875h15.03125v-8.515625h16.03125v-39.074219h-32.0625v-9.019531h32.5625v-15.027344h-16.53125v-8.519531h-15.03125v8.519531h-16.03125v39.074219h32.0625v9.019531h-32.5625v15.027344h16.53125zm0 0"/><path d="m384.25 142.582031h16.03125v15.027344h-16.03125zm0 0"/><path d="m288.0625 142.582031h16.03125v15.027344h-16.03125zm0 0"/><path d="m207.90625 302.894531h16.03125v15.027344h-16.03125zm0 0"/><path d="m111.71875 302.894531h16.03125v15.027344h-16.03125zm0 0"/><path d="m167.328125 317.921875h16.53125v-15.027344h-16.53125v-8.515625c0-4.699218 3.820313-8.519531 8.515625-8.519531h8.015625v-15.027344h-8.015625c-12.984375 0-23.546875 10.5625-23.546875 23.546875v8.515625h-8.515625v15.027344h8.515625v17.035156h-8.515625v15.027344h48.09375v-15.027344h-24.546875zm0 0"/></svg>