<?xml version="1.0" standalone="no"?>
<!DOCTYPE svg PUBLIC "-//W3C//DTD SVG 20010904//EN"
 "http://www.w3.org/TR/2001/REC-SVG-20010904/DTD/svg10.dtd">
<svg version="1.0" xmlns="http://www.w3.org/2000/svg"
 width="512.000000pt" height="512.000000pt" viewBox="0 0 512.000000 512.000000"
 preserveAspectRatio="xMidYMid meet">
<metadata>
Created by potrace 1.11, written by Peter Selinger 2001-2013
</metadata>
<g transform="translate(0.000000,512.000000) scale(0.100000,-0.100000)"
fill="#000000" stroke="none">
<path d="M2157 4793 l-47 -48 97 -97 98 -98 -753 0 -752 0 0 -195 0 -195 75 0
75 0 0 120 0 120 672 0 673 0 -95 -95 -95 -95 53 -52 52 -53 187 188 188 187
-180 180 c-99 99 -184 180 -190 180 -6 0 -32 -21 -58 -47z"/>
<path d="M800 3915 l0 -75 75 0 75 0 0 75 0 75 -75 0 -75 0 0 -75z"/>
<path d="M3370 3710 l0 -40 -80 0 -80 0 0 -195 0 -195 160 0 160 0 0 -45 0
-45 -165 0 -165 0 0 -75 0 -75 85 0 85 0 0 -45 0 -46 73 3 72 3 3 43 3 42 80
0 79 0 0 195 0 195 -160 0 -160 0 0 45 0 45 160 0 160 0 0 75 0 75 -80 0 -80
0 0 40 0 40 -75 0 -75 0 0 -40z"/>
<path d="M0 3275 l0 -315 160 0 160 0 0 -165 0 -165 -160 0 -160 0 0 -315 0
-315 80 0 80 0 0 -240 0 -240 345 0 c190 0 345 3 344 8 0 4 -6 34 -13 67 l-13
60 -96 3 -97 3 0 169 0 170 113 0 112 0 25 62 c14 35 26 66 28 70 2 4 -23 8
-55 10 l-58 3 -3 168 -2 167 85 0 85 0 0 -120 c0 -73 4 -120 10 -120 6 0 10 4
10 9 0 5 29 40 65 79 58 62 65 74 65 111 l0 41 55 0 c43 0 71 8 125 35 106 53
228 85 353 92 l107 6 0 173 0 174 90 0 90 0 0 -194 0 -193 63 -24 c34 -13 65
-25 70 -27 4 -2 7 129 7 292 l0 296 -160 0 -160 0 0 240 0 240 -875 0 -875 0
0 -315z m320 0 l0 -165 -85 0 -85 0 0 165 0 165 85 0 85 0 0 -165z m320 0 l0
-165 -85 0 -85 0 0 165 0 165 85 0 85 0 0 -165z m320 0 l0 -165 -85 0 -85 0 0
165 0 165 85 0 85 0 0 -165z m320 0 l0 -165 -85 0 -85 0 0 165 0 165 85 0 85
0 0 -165z m328 -2 l2 -163 -90 0 -90 0 0 165 0 166 88 -3 87 -3 3 -162z m-968
-478 l0 -165 -85 0 -85 0 0 165 0 165 85 0 85 0 0 -165z m320 0 l0 -165 -85 0
-85 0 0 165 0 165 85 0 85 0 0 -165z m320 0 l0 -165 -85 0 -85 0 0 165 0 165
85 0 85 0 0 -165z m328 -2 l2 -163 -90 0 -90 0 0 165 0 166 88 -3 87 -3 3
-162z m-1288 -483 l0 -170 -85 0 -85 0 0 170 0 170 85 0 85 0 0 -170z m320 0
l0 -170 -85 0 -85 0 0 170 0 170 85 0 85 0 0 -170z m-160 -480 l0 -170 -85 0
-85 0 0 170 0 170 85 0 85 0 0 -170z"/>
<path d="M4285 3573 c5 -14 25 -115 25 -130 0 -2 41 -3 90 -3 l90 0 0 -165 0
-165 -104 0 -103 0 -30 -75 -31 -75 54 0 54 0 0 -165 0 -165 -85 0 -85 0 0
113 0 112 -43 -50 c-23 -27 -57 -63 -74 -79 -25 -22 -33 -38 -33 -63 0 -31 -2
-33 -36 -33 -22 0 -73 -18 -137 -50 -123 -61 -228 -88 -364 -97 l-103 -6 -2
-166 -3 -166 -85 0 -85 0 -3 186 -2 186 -53 21 c-28 11 -60 23 -69 27 -17 7
-18 -10 -18 -279 l0 -286 80 0 80 0 0 -240 0 -240 875 0 875 0 0 310 0 310
-80 0 -80 0 0 170 0 170 160 0 160 0 0 315 0 315 -80 0 -80 0 0 240 0 240
-341 0 c-321 0 -341 -1 -334 -17z m525 -298 l0 -165 -85 0 -85 0 0 165 0 165
85 0 85 0 0 -165z m-160 -480 l0 -165 -85 0 -85 0 0 165 0 165 85 0 85 0 0
-165z m320 0 l0 -165 -85 0 -85 0 0 165 0 165 85 0 85 0 0 -165z m-1282 -482
l-3 -168 -85 0 -85 0 -3 155 c-1 85 0 160 2 167 4 9 30 13 91 13 l85 0 -2
-167z m320 0 l-3 -168 -82 -3 -83 -3 0 171 0 170 85 0 85 0 -2 -167z m320 0
l-3 -168 -82 -3 -83 -3 0 171 0 170 85 0 85 0 -2 -167z m322 -3 l0 -170 -85 0
-85 0 0 170 0 170 85 0 85 0 0 -170z m-1122 -477 l-3 -168 -85 0 -85 0 -3 155
c-1 85 0 160 2 167 4 9 30 13 91 13 l85 0 -2 -167z m322 -3 l0 -170 -85 0 -85
0 0 170 0 170 85 0 85 0 0 -170z m320 0 l0 -170 -85 0 -85 0 0 170 0 170 85 0
85 0 0 -170z m320 0 l0 -170 -85 0 -85 0 0 170 0 170 85 0 85 0 0 -170z m320
0 l0 -170 -85 0 -85 0 0 170 0 170 85 0 85 0 0 -170z"/>
<path d="M2880 3355 l0 -75 80 0 80 0 0 75 0 75 -80 0 -80 0 0 -75z"/>
<path d="M3840 3355 l0 -75 80 0 80 0 0 75 0 75 -80 0 -80 0 0 -75z"/>
<path d="M1711 2139 c-118 -23 -191 -129 -191 -275 0 -33 -1 -34 -40 -34 l-40
0 0 -75 0 -75 40 0 40 0 0 -90 0 -90 -40 0 -40 0 0 -70 0 -70 240 0 240 0 0
70 0 69 -122 3 -123 3 0 85 0 85 83 3 83 3 -3 72 -3 72 -82 3 -83 3 0 40 c0
89 41 129 132 129 l39 0 -3 73 -3 72 -40 2 c-22 1 -60 -3 -84 -8z"/>
<path d="M1120 1755 l0 -75 80 0 81 0 -3 73 -3 72 -77 3 -78 3 0 -76z"/>
<path d="M2080 1755 l0 -75 80 0 81 0 -3 73 -3 72 -77 3 -78 3 0 -76z"/>
<path d="M4170 1190 l0 -80 75 0 75 0 0 80 0 80 -75 0 -75 0 0 -80z"/>
<path d="M2720 815 l-185 -185 188 -187 187 -188 52 53 53 52 -93 93 c-50 51
-92 96 -92 100 0 4 335 7 745 7 l745 0 0 195 0 195 -75 0 -75 0 0 -125 0 -125
-677 0 -678 0 98 98 97 98 -53 52 -52 52 -185 -185z"/>
</g>
</svg>
